# xmcd
#
# Track frame offsets:
#	150
#	13114
#	32167
#	43835
#	50808
#	67112
#	80614
#	91280
#	102136
#	116131
#	127266
#	138361
#	150281
#	168533
#	181297
#
# Disc length: 2653 seconds
#
# Revision: 0
# Processed by: cddbd v1.5.1PL0 Copyright (c) Steve Scherf et al.
# Submitted via: dBpowerAMP V4.0
#
DISCID=d30a5b0f
DTITLE=Skyland - Moon Over The Water
DYEAR=1900
DGENRE=Country
TTITLE0=Robin D
TTITLE1=Tender
TTITLE2=Wichita
TTITLE3=Mollie In The Window Sill
TTITLE4=Stony Man Mountain
TTITLE5=Peaks of Otter
TTITLE6=Happy Land
TTITLE7=Shorttrack Shuffle
TTITLE8=Breakthrough
TTITLE9=Your Long Journey
TTITLE10=Snake Creek Ramble
TTITLE11=It Ain't Easy
TTITLE12=Waltzing's for Dreamers
TTITLE13=Sounds of Goodbye
TTITLE14=Moon Over The Water
EXTD=
EXTT0=
EXTT1=
EXTT2=
EXTT3=
EXTT4=
EXTT5=
EXTT6=
EXTT7=
EXTT8=
EXTT9=
EXTT10=
EXTT11=
EXTT12=
EXTT13=
EXTT14=
PLAYORDER=
